<svg width="21" height="21" viewBox="0 0 21 21" fill="none" xmlns="http://www.w3.org/2000/svg">
<path fill-rule="evenodd" clip-rule="evenodd" d="M5.40094 8.2611C5.58847 8.07363 5.84278 7.96831 6.10794 7.96831C6.3731 7.96831 6.62741 8.07363 6.81494 8.2611L10.1079 11.5541L13.4009 8.2611C13.4932 8.16559 13.6035 8.08941 13.7255 8.037C13.8475 7.98459 13.9788 7.957 14.1115 7.95585C14.2443 7.95469 14.376 7.98 14.4989 8.03028C14.6218 8.08056 14.7334 8.15481 14.8273 8.2487C14.9212 8.3426 14.9955 8.45425 15.0458 8.57714C15.096 8.70004 15.1213 8.83172 15.1202 8.9645C15.119 9.09728 15.0915 9.2285 15.039 9.3505C14.9866 9.47251 14.9105 9.58285 14.8149 9.6751L10.8149 13.6751C10.6274 13.8626 10.3731 13.9679 10.1079 13.9679C9.84278 13.9679 9.58847 13.8626 9.40094 13.6751L5.40094 9.6751C5.21347 9.48757 5.10815 9.23326 5.10815 8.9681C5.10815 8.70293 5.21347 8.44863 5.40094 8.2611Z" fill="white"/>
</svg>
