<svg width="25" height="25" viewBox="0 0 25 25" fill="none" xmlns="http://www.w3.org/2000/svg">
<path d="M4.76952 6.95567C4.35165 7.37354 4.02017 7.86962 3.79402 8.41559C3.56787 8.96155 3.45148 9.54672 3.45148 10.1377C3.45148 10.7286 3.56787 11.3138 3.79402 11.8598C4.02017 12.4057 4.35165 12.9018 4.76952 13.3197L12.4515 21.0017L20.1335 13.3197C20.9774 12.4758 21.4515 11.3312 21.4515 10.1377C21.4515 8.94419 20.9774 7.79959 20.1335 6.95567C19.2896 6.11175 18.145 5.63765 16.9515 5.63765C15.758 5.63765 14.6134 6.11175 13.7695 6.95567L12.4515 8.27367L11.1335 6.95567C10.7157 6.5378 10.2196 6.20633 9.6736 5.98018C9.12764 5.75403 8.54247 5.63763 7.95152 5.63763C7.36056 5.63763 6.7754 5.75403 6.22943 5.98018C5.68346 6.20633 5.18738 6.5378 4.76952 6.95567Z" stroke="white" stroke-width="2" stroke-linecap="round" stroke-linejoin="round"/>
</svg>
